<svg width="176" height="52" fill="none" xmlns="http://www.w3.org/2000/svg"><path fill-rule="evenodd" clip-rule="evenodd" d="M0 16.37v.13l29.75 13.76 29.86-13.8v-.04L29.75 2.6 0 16.37Zm10.73.07 19.02-8.8 19.03 8.8-19.03 8.8-19.02-8.8ZM29.75 35.6 0 22.05v5.02l29.75 13.59 29.86-13.64V22L29.75 35.61Zm0 10.17L0 32.22v5.02l29.75 13.59 29.86-13.64v-5.02L29.75 45.78ZM169.22 26.22a8.57 8.57 0 0 0-2.29-5.9 7.67 7.67 0 0 0-2.47-1.76 7.26 7.26 0 0 0-3.02-.64c-1.06 0-2.07.22-3.01.64a7.67 7.67 0 0 0-2.47 1.77 8.5 8.5 0 0 0-2.29 5.9 8.57 8.57 0 0 0 2.29 5.88c.7.76 1.53 1.35 2.47 1.77.94.43 1.94.64 3.01.64 1.07 0 2.08-.21 3.02-.64a7.67 7.67 0 0 0 2.47-1.77 8.5 8.5 0 0 0 2.29-5.89Zm6.78 0a14.16 14.16 0 0 1-4.24 10.2 14.8 14.8 0 0 1-10.32 4.13 14.45 14.45 0 0 1-10.27-4.15 14.12 14.12 0 0 1-4.24-10.18c0-1.98.39-3.84 1.16-5.59a14.45 14.45 0 0 1 13.36-8.74 14.8 14.8 0 0 1 10.32 4.12 14.21 14.21 0 0 1 4.24 10.2ZM144.58 39.7a9.1 9.1 0 0 1-3.91.85c-1 0-1.97-.13-2.9-.4a6.35 6.35 0 0 1-2.43-1.3 6.28 6.28 0 0 1-1.65-2.33 8.83 8.83 0 0 1-.6-3.46V.72H140v31.16c0 1.13.23 1.9.68 2.33.46.43 1 .64 1.63.64.78 0 1.53-.24 2.26-.7v5.55Zm-14.56-27.15-12.25 32.39c-.9 2.42-2.1 4.16-3.58 5.23a8.76 8.76 0 0 1-6.31 1.53 7.76 7.76 0 0 1-1.08-.21l-2.27-6.32c.54.25 1.09.45 1.65.6.57.13 1.1.2 1.6.2 1.07 0 2.05-.24 2.93-.73a4.74 4.74 0 0 0 2.02-2.7l.94-2.74-10.5-27.25h7.4l6.26 17.54 5.89-17.54h7.3Zm-28.5-4.1H83.8v8.77h17.47v5.94H83.81v16.68h-7.16V2.18h24.87v6.27Z" fill="#fff"/></svg>